<svg version="1.1" viewBox="0 0 105.076 105.076" xmlns="http://www.w3.org/2000/svg" xmlns:xlink="http://www.w3.org/1999/xlink" overflow="hidden"><defs><path d=" M 53.559 20.589 L 26.195 20.589 C 24.4305 20.589 23 22.0195 23 23.784 L 23 81.29 C 23 83.0546 24.4305 84.485 26.195 84.485 L 53.559 84.485 C 70.409 84.485 84.118 70.153 84.118 52.537 C 84.118 34.921 70.409 20.589 53.559 20.589 Z M 53.559 66.427 L 41.857 66.427 C 41.416 66.4265 41.0585 66.069 41.058 65.628 L 41.058 39.445 C 41.0585 39.004 41.416 38.6465 41.857 38.646 L 53.56 38.646 C 60.464 38.646 66.061 44.865 66.061 52.536 C 66.06 60.208 60.463 66.427 53.559 66.427 Z" id="a"/></defs><clipPath id="b"><use width="100%" height="100%" xlink:href="#a" overflow="visible"></use></clipPath><linearGradient x1="-2489.8" y1="3297.29" x2="-2566.97" y2="3276.61" gradientUnits="userSpaceOnUse" id="c" gradientTransform="matrix(1,0,0,1,2572.57,-3234.41)"><stop offset="0" stop-color="#FFE100"/><stop offset="0.3016" stop-color="#FFDB00" stop-opacity="0.5979"/><stop offset="0.6954" stop-color="#FFCB00" stop-opacity="0.0728"/><stop offset="0.75" stop-color="#FFC800" stop-opacity="0"/></linearGradient><linearGradient x1="-2508.59" y1="3199.22" x2="-2452.11" y2="3142.74" gradientUnits="userSpaceOnUse" id="d" gradientTransform="matrix(1,0,0,1,2524.53,-3118.45)"><stop offset="0" stop-color="#FA3264"/><stop offset="0.3016" stop-color="#FA3864" stop-opacity="0.5979"/><stop offset="0.6954" stop-color="#F94864" stop-opacity="0.0728"/><stop offset="0.75" stop-color="#F94B64" stop-opacity="0"/></linearGradient><radialGradient cx="489.921" cy="126.422" r="33.6314" gradientUnits="userSpaceOnUse" id="e" gradientTransform="matrix(2.4731,0,0,2.4731,-1178.14,-300.207)"><stop offset="0" stop-color="#6496FF"/><stop offset="0.3695" stop-color="#5E99FF" stop-opacity="0.5381"/><stop offset="0.8" stop-color="#50A0FF" stop-opacity="0"/></radialGradient><path d=" M 20.956 0 C 9.401 0 0 9.936 0 22.151 L 0 82.926 C 0 95.141 9.4 105.077 20.956 105.077 L 84.122 105.077 C 95.677 105.077 105.076 95.141 105.076 82.926 L 105.076 22.151 C 105.076 9.936 95.677 0 84.122 0 L 20.956 0 Z" fill="#FFFFFF"/><circle cx="44.184" cy="52.537" r="39.934" fill="url(#c)" clip-path="url(#b)"/><circle cx="44.184" cy="52.537" r="39.934" fill="url(#d)" clip-path="url(#b)" opacity="0.75"/><path d=" M 4.249 12.602 L 84.118 12.602 L 84.118 92.471 L 4.249 92.471 Z" fill="url(#e)" clip-path="url(#b)"/></svg>