<?xml version="1.0" encoding="utf-8"?>
<!-- Generator: Adobe Illustrator 27.9.5, SVG Export Plug-In . SVG Version: 9.03 Build 54986)  -->
<svg version="1.1" id="Layer_1" xmlns="http://www.w3.org/2000/svg" xmlns:xlink="http://www.w3.org/1999/xlink" x="0px" y="0px"
	 viewBox="0 0 540 540" style="enable-background:new 0 0 540 540;" xml:space="preserve">
<style type="text/css">
	.st0{fill:#F9E000;}
	.st1{fill:#007DFD;}
</style>
<path class="st0" d="M268.7,160.3c-26.5-0.1-49.9,23.1-50,49.6c-0.1,26.5,22.9,49.8,49.5,50.1c26.3,0.2,49.7-23,49.9-49.6
	C318.3,183.9,295.1,160.4,268.7,160.3z"/>
<path class="st0" d="M415.4,0H124.6C55.8,0,0,55.8,0,124.6v290.8C0,484.2,55.8,540,124.6,540h290.8c68.8,0,124.6-55.8,124.6-124.6
	V124.6C540,55.8,484.2,0,415.4,0z M414.1,222.3c-3.1,35.3-21.7,65.4-44.8,91.5c-38.9,43.9-69.7,92.2-88.2,148.2
	c-2,5.9-4.2,13-12.4,13.2c-7.6,0.2-10.2-6.1-12-11.6c-19.7-61.1-55.6-112.1-96.8-160.5c-22.6-26.5-37.5-57.6-37.5-94.1
	c0.1-80.3,65.4-145.2,146.1-145.2C353.6,62.6,421.6,136.2,414.1,222.3z"/>
<path class="st1" d="M268.5,63.8c-80.8-0.1-146,64.9-146.1,145.2c-0.1,36.4,14.9,67.5,37.5,94.1c41.1,48.4,77.1,99.3,96.8,160.5
	c1.8,5.5,4.4,11.8,12,11.6c8.3-0.2,10.5-7.2,12.4-13.2c18.4-55.9,49.3-104.3,88.2-148.2c23.1-26.1,41.7-56.2,44.8-91.5
	C421.6,136.2,353.6,62.6,268.5,63.8z M318.1,210.3c-0.2,26.6-23.6,49.8-49.9,49.6c-26.5-0.2-49.6-23.6-49.5-50.1
	c0.1-26.5,23.5-49.7,50-49.6C295.1,160.4,318.3,183.9,318.1,210.3z"/>
</svg>
