<?xml version="1.0" encoding="UTF-8"?>
<svg xmlns="http://www.w3.org/2000/svg" version="1.1" viewBox="0 0 50.2 48.7">
  <defs>
    <style>
      .cls-1 {
        fill: #003863;
      }

      .cls-2 {
        fill: #e4032e;
      }
    </style>
  </defs>
  <!-- Generator: Adobe Illustrator 28.6.0, SVG Export Plug-In . SVG Version: 1.2.0 Build 709)  -->
  <g>
    <g id="Layer_1">
      <g id="symbol">
        <g>
          <path class="cls-1" d="M37.6,23.2c-4.2-2.9-9.6-1.7-12.5,2.6-2.4,3.6-6,4.1-7.3,4.1-4.5,0-7.6-3.2-8.5-6.5h0s0,0,0,0c0,0,0,0,0-.1-.4-1.4-.5-2-.5-3.5,0-7.9,8.1-16.6,19.7-16.6s18.7,9.1,20.5,14.1c0,0,0-.2,0-.3C45.4,7.1,36.1,0,25.1,0S0,11.2,0,25.1s8.9,23,21.3,23,16.5-5.5,19.6-13.2c1.7-4.2.5-9.1-3.3-11.7Z"/>
          <path class="cls-2" d="M49.1,17.7c-1.5-4.9-8.3-14.6-20.6-14.6S8.7,11.9,8.7,19.7s0,2.1.5,3.5c-.2-.6-.2-1.2-.2-1.8,0-8.2,8.2-13.9,16.6-13.9s20.7,9.3,20.7,20.7-5.2,16.7-12.6,20.4h0c9.7-3.5,16.5-12.7,16.5-23.6s-.3-4.8-1.1-7.4Z"/>
        </g>
      </g>
    </g>
  </g>
</svg>