<?xml version="1.0" encoding="utf-8"?>
<!-- Generator: Adobe Illustrator 27.9.5, SVG Export Plug-In . SVG Version: 9.03 Build 54986)  -->
<svg version="1.1" id="Layer_1" xmlns="http://www.w3.org/2000/svg" xmlns:xlink="http://www.w3.org/1999/xlink" x="0px" y="0px"
	 viewBox="0 0 185.6 186.1" style="enable-background:new 0 0 185.6 186.1;" xml:space="preserve">
<style type="text/css">
	.st0{fill:#0096D6;}
</style>
<g>
	<path class="st0" d="M185.5,90.2c-0.1-3.6-0.5-7.2-1-10.8c0,0,0-0.1,0-0.1c-0.6-3.9-1.5-7.8-2.7-11.8c-2.3-7.6-5.5-15.2-9.9-22.5
		c-12.3-20.7-30.6-34.9-49.6-40.7l0,0c0,0-43.4-14.5-66.8,9.4c-0.4,0.4-0.8,0.9-1.2,1.4C39.1,20.5,26.1,29.5,16.8,41
		C9.5,49.8,4.4,60.1,2.1,71.3c-0.2,0.9-0.7,3.7-0.7,4C-0.4,85.8,0,94.5,0,94.5l0,0c0,0.3,0,0.6,0,1c0.2,7.6,1.4,15.3,3.7,23.1
		c2.3,7.6,5.5,15.2,9.9,22.5C26,161.8,44.2,176,63.2,181.8l0,0c0,0,43.4,14.5,66.8-9.4c0.4-0.5,0.8-0.9,1.2-1.4
		c15.1-5.4,28.1-14.4,37.5-25.9c4.3-5.3,7.9-11.1,10.6-17.3C185.2,114.7,185.9,100.2,185.5,90.2z M48.7,23.4
		c7.5-3.5,16-6.3,25.3-8.1c14.1-2.8,27.7-3.3,40.3-1.6c27.7,3.7,50.3,17.6,60.9,38.8c0.1,0.2,0.2,0.4,0.3,0.5c0.1,0.3,0,0.4-0.1,0.5
		c-0.2,0.1-0.5,0-0.7-0.2c-0.1-0.2-0.2-0.4-0.3-0.5c-8.7-13.7-22.6-24-39.7-30.1c-17.2-6.1-37.6-7.7-59.1-3.8
		c-10.8,1.9-20.4,5.1-28.9,9.2C47.3,26.6,47.9,25,48.7,23.4z M44.8,39.3c8.7-3.9,18-7.2,27.7-9.6c31.5-7.8,59.8-4,80.2,7.7
		c14.2,8.1,24.5,20,29.4,34.3c0.1,0.2,0.1,0.4,0.2,0.6c0,0,0,0,0,0.1c0.2,0.7,0,1-0.3,1c-0.1,0-0.3-0.1-0.4-0.2
		c-0.1-0.2-0.1-0.3-0.2-0.5c-4.5-10.7-12-19.9-22-27c-20.8-14.7-52-20.1-87-11c-9.6,2.6-18.8,6-27.3,10.1c0-0.4-0.1-0.7-0.1-1.1
		C44.8,42.2,44.7,40.7,44.8,39.3z M136.9,162.7c-7.5,3.5-16,6.3-25.3,8.1c-14.1,2.8-27.7,3.3-40.3,1.6
		c-27.7-3.7-50.3-17.6-60.9-38.8c-0.1-0.2-0.2-0.4-0.3-0.5c-0.1-0.3,0-0.4,0.1-0.5c0.2-0.1,0.5,0,0.7,0.2c0.1,0.2,0.2,0.4,0.3,0.5
		c8.7,13.7,22.6,24,39.7,30.1c17.2,6.1,37.6,7.7,59.1,3.8c10.8-1.9,20.4-5,28.9-9.2C138.3,159.6,137.6,161.2,136.9,162.7z
		 M140.8,146.9c-8.7,3.9-18,7.2-27.7,9.6c-31.5,7.8-59.8,4-80.2-7.7c-14.1-8.1-24.5-20-29.4-34.3c-0.1-0.2-0.1-0.4-0.2-0.6
		c0,0,0,0,0-0.1c-0.2-0.7,0-1,0.3-1c0.1,0,0.3,0.1,0.4,0.2c0.1,0.2,0.1,0.3,0.2,0.5c4.5,10.7,12,19.9,22,27c20.8,14.7,52,20.1,87,11
		c9.6-2.6,18.8-6,27.3-10.1c0,0.4,0.1,0.7,0.1,1.1C140.8,144,140.9,145.4,140.8,146.9z M184.2,92.1c-0.1,0-0.3-0.1-0.4-0.3
		c0-0.1-0.1-0.3-0.1-0.4c-2.4-9.6-7.4-18-14.4-24.9c-20-19.9-56.2-27.8-94.4-18.5c-2.9,0.7-5.7,1.5-8.5,2.4
		c-6,1.9-11.8,4.2-17.3,6.9c1.2,2.2,2.6,4.2,4.1,6.1c11.3-5.4,24.2-9.3,37.6-11c9-1.2,17.7-1.3,26.1-0.6
		c22.7,2.1,42.3,10.9,54.4,24.3c7.7,8.6,12.3,19,12.4,30.7c0,0.3,0,0.6,0,1c0,0.3,0,0.6,0,0.9c-0.1,0.4-0.3,0.5-0.6,0.5
		c-0.2,0-0.3-0.1-0.4-0.3c0-0.3-0.1-0.6-0.1-0.9c-1.3-9.3-5-17.6-10.8-24.7c-7.6-9.4-18.6-16.5-31.9-20.9c-15.9-5.2-35-6.4-55.4-2.4
		c-9.4,1.8-18.4,4.5-26.7,8c2.2,1.9,4.6,3.5,7.2,4.9c9.4-4.2,20.1-7.1,31.7-8.3c23-2.3,44.6,2.5,60.1,12.2c6,3.7,11,8.2,14.9,13.2
		c5.3,6.9,8.4,14.9,8.5,23.6c0.1,4.9-0.7,9.7-2.4,14.2c-0.1,0.2-0.1,0.3-0.2,0.5c-0.1,0.2-0.3,0.3-0.4,0.3c-0.2,0-0.2-0.2-0.2-0.5
		c0-0.2,0.1-0.3,0.1-0.5c0.8-3.7,1.1-7.4,0.8-11.2c-0.6-7.1-3.1-13.6-7.1-19.3c-0.9-1.2-1.8-2.4-2.8-3.6C153,76,123.6,67,92.6,72.7
		c-5.9,0.9-11.5,2.3-16.8,4c4.8,1.1,10,1.3,15.2,0.6c0,0,8.4-1.1,11.9-1.9c0.7-0.1,1.8-0.3,2.3-0.3l0.2,0c5-0.5,20.4-1.3,36.5,4.5
		c0,0,18.1,6.1,26,19.9c0,0,1.8,2.5-0.8,6c-2.4,3.1-5,6-7.9,8.7c-2.8,2.5-7.6,6-7.6,6v0c-4.4,3-9.1,5.7-14,8.1l0-0.1
		c-0.4,0.2-0.7,0.3-1.1,0.5c0,0,0,0.1,0,0.1c0.2,0.3,0.4,0.7,0.5,1c0.6,1.2,1.1,2.4,1.6,3.7c-8.3,4-17.3,7.2-26.8,9.6
		c-37,9.3-72.1,2.8-92.6-15.3c-9.7-8.5-16.1-19.6-18-32.8c0-0.2-0.1-0.4-0.1-0.7c0-0.3,0.1-0.4,0.3-0.4c0.1,0,0.3,0.1,0.4,0.3
		c0,0.2,0.1,0.3,0.1,0.4c2.4,9.6,7.4,18,14.4,24.9c20,19.9,56.2,27.8,94.4,18.5c2.9-0.7,5.7-1.5,8.5-2.4c6-1.9,11.8-4.2,17.3-6.9
		c-1.2-2.2-2.6-4.2-4.1-6.1c-11.3,5.4-24.2,9.3-37.6,11c-9,1.2-17.7,1.3-26.1,0.6c-22.7-2.1-42.3-10.9-54.4-24.3
		C6.6,101.5,2,91.1,1.9,79.4c0-0.3,0-0.6,0-1c0-0.3,0-0.6,0-0.9c0.1-0.4,0.3-0.5,0.6-0.5c0.2,0,0.4,0.1,0.4,0.3
		c0,0.3,0.1,0.6,0.1,0.9c1.3,9.3,5,17.6,10.8,24.7c7.6,9.4,18.6,16.5,31.9,20.9c15.9,5.2,35,6.4,55.4,2.4c9.4-1.8,18.4-4.5,26.7-8
		c-2.2-1.9-4.6-3.5-7.3-4.9c-9.4,4.2-20.1,7.1-31.7,8.2c-23,2.3-44.6-2.5-60.1-12.1c-6-3.7-11-8.2-14.9-13.2
		c-5.3-6.9-8.4-14.9-8.5-23.6C5.4,67.7,6.2,63,7.8,58.4c0.1-0.2,0.1-0.3,0.2-0.5c0.1-0.2,0.3-0.3,0.4-0.3c0.2,0,0.2,0.3,0.2,0.5
		c0,0.2-0.1,0.3-0.1,0.5c-0.8,3.7-1.1,7.4-0.8,11.2c0.6,7.1,3.1,13.6,7.1,19.3c0.9,1.2,1.8,2.4,2.8,3.6
		C32.5,110.1,62,119.2,93,113.4c5.9-0.9,11.5-2.3,16.8-4c-4.8-1.1-10-1.3-15.2-0.6c0,0-8.4,1.1-11.9,1.8c-0.7,0.1-1.8,0.3-2.3,0.3
		l-0.2,0c-5,0.5-20.4,1.3-36.5-4.5c0,0-18.1-6.1-26-19.9c0,0-1.8-2.5,0.8-6c2.4-3.1,5-6,7.9-8.7c2.8-2.5,7.6-6,7.6-6l0,0
		c4.4-3,9.1-5.7,14-8.1l0,0.1c0.4-0.2,0.7-0.4,1.1-0.5c0,0,0-0.1,0-0.1c-0.2-0.3-0.4-0.7-0.5-1C48,55,47.4,53.7,47,52.5
		c8.3-4,17.3-7.2,26.8-9.6c37-9.3,72.1-2.8,92.6,15.3c9.7,8.5,16.1,19.6,18,32.8c0,0.2,0.1,0.4,0.1,0.7
		C184.5,92,184.4,92.1,184.2,92.1z"/>
</g>
</svg>
